<svg xmlns="http://www.w3.org/2000/svg" xmlns:xlink="http://www.w3.org/1999/xlink" xmlns:lucid="lucid" width="1315.59" height="1457.74"><g transform="translate(-22.203316237781337 -151.1298051033641)" lucid:page-tab-id="0_0"><path d="M0 0h1360v1760H0z" fill="#fff"/><path d="M438.57 681.43v15.88h738.9v44.6" stroke="#000" stroke-width="2" fill="none"/><path d="M438.57 666.17l4.64 14.26h-9.26z" stroke="#000" stroke-width="2"/><path d="M1178.47 742.9h-2v-1.03h2z"/><path d="M698.45 743.4H903.8v320H698.46z" fill="#fff"/><path d="M698.45 829.4H903.8v39H698.46zM698.45 907.4H903.8v39H698.46zM698.45 985.4H903.8v39H698.46z" fill="#e6e6e6"/><path d="M698.45 743.4H903.8v43H698.46z" fill="#ccc"/><path d="M698.45 743.4H903.8v320H698.46zM698.45 786.4H903.8" stroke="#666" fill="none"/><use xlink:href="#a" transform="matrix(1,0,0,1,703.4549317942326,788.8953669164711) translate(5 25.48888888888889)"/><use xlink:href="#b" transform="matrix(1,0,0,1,703.4549317942326,831.8953669164711) translate(0 21.88888888888889)"/><use xlink:href="#c" transform="matrix(1,0,0,1,703.4549317942326,870.8953669164711) translate(0 21.88888888888889)"/><use xlink:href="#d" transform="matrix(1,0,0,1,703.4549317942326,909.8953669164711) translate(0 21.88888888888889)"/><use xlink:href="#e" transform="matrix(1,0,0,1,703.4549317942326,948.8953669164711) translate(0 21.88888888888889)"/><use xlink:href="#f" transform="matrix(1,0,0,1,703.4549317942326,987.8953669164711) translate(0 21.88888888888889)"/><use xlink:href="#g" transform="matrix(1,0,0,1,703.4549317942326,1026.8953669164712) translate(0 21.88888888888889)"/><path d="M698.45 735.1H903.8v46.3H698.46z" stroke="#666" fill="#ffb781"/><use xlink:href="#h" transform="matrix(1,0,0,1,703.2549317942326,739.8872071102809) translate(42.86604938271604 25.068055555555556)"/><path d="M213.36 459.43h235.76v203H213.36z" fill="#fff"/><path d="M213.36 545.43h235.76v39H213.36zM213.36 623.43h235.76v39H213.36z" fill="#e6e6e6"/><path d="M213.36 459.43h235.76v43H213.36z" fill="#ccc"/><path d="M213.36 459.43h235.76v203H213.36zM213.36 502.43h235.76" stroke="#666" fill="none"/><use xlink:href="#i" transform="matrix(1,0,0,1,218.36030209279906,504.931265494737) translate(5 25.48888888888889)"/><use xlink:href="#j" transform="matrix(1,0,0,1,218.36030209279906,547.931265494737) translate(0 21.88888888888889)"/><use xlink:href="#k" transform="matrix(1,0,0,1,218.36030209279906,586.931265494737) translate(0 21.88888888888889)"/><use xlink:href="#l" transform="matrix(1,0,0,1,218.36030209279906,625.931265494737) translate(0 21.88888888888889)"/><path d="M213.36 453.4h235.76v46.2H213.36z" stroke="#666" fill="#ffb781"/><use xlink:href="#m" transform="matrix(1,0,0,1,218.16030209279907,458.18998080257546) translate(82.16543209876544 25.068055555555556)"/><path d="M689.58 338.46h205.35v274H689.58z" fill="#fff"/><path d="M689.58 417.46h205.35v39H689.58zM689.58 495.46h205.35v39H689.58zM689.58 573.46h205.35v39H689.58z" fill="#e6e6e6"/><path d="M689.58 338.46h205.35v40H689.58z" fill="#ccc"/><path d="M689.58 338.46h205.35v274H689.58zM689.58 378.46h205.35" stroke="#666" fill="none"/><use xlink:href="#n" transform="matrix(1,0,0,1,694.5786206247453,380.9581604373618) translate(0 21.88888888888889)"/><use xlink:href="#o" transform="matrix(1,0,0,1,694.5786206247453,419.9581604373618) translate(0 21.88888888888889)"/><use xlink:href="#p" transform="matrix(1,0,0,1,694.5786206247453,458.9581604373618) translate(0 21.88888888888889)"/><use xlink:href="#q" transform="matrix(1,0,0,1,694.5786206247453,497.9581604373618) translate(0 21.88888888888889)"/><use xlink:href="#r" transform="matrix(1,0,0,1,694.5786206247453,536.9581604373618) translate(0 21.88888888888889)"/><use xlink:href="#s" transform="matrix(1,0,0,1,694.5786206247453,575.9581604373618) translate(0 21.88888888888889)"/><path d="M689.58 328.36h205.35v46.3H689.58z" stroke="#666" fill="#ffb781"/><use xlink:href="#t" transform="matrix(1,0,0,1,694.3786206247454,333.160501361952) translate(63.915432098765436 25.068055555555556)"/><path d="M1112.44 342.64h205.36v281h-205.36z" fill="#fff"/><path d="M1112.44 428.64h205.36v39h-205.36zM1112.44 506.64h205.36v39h-205.36zM1112.44 584.64h205.36v39h-205.36z" fill="#e6e6e6"/><path d="M1112.44 342.64h205.36v43h-205.36z" fill="#ccc"/><path d="M1112.44 342.64h205.36v281h-205.36zM1112.44 385.64h205.36" stroke="#666" fill="none"/><use xlink:href="#u" transform="matrix(1,0,0,1,1117.4417402062084,388.1391236693976) translate(5 25.48888888888889)"/><use xlink:href="#v" transform="matrix(1,0,0,1,1117.4417402062084,431.1391236693976) translate(0 21.88888888888889)"/><use xlink:href="#w" transform="matrix(1,0,0,1,1117.4417402062084,470.1391236693976) translate(0 21.88888888888889)"/><use xlink:href="#x" transform="matrix(1,0,0,1,1117.4417402062084,509.1391236693976) translate(0 21.88888888888889)"/><use xlink:href="#y" transform="matrix(1,0,0,1,1117.4417402062084,548.1391236693976) translate(0 21.88888888888889)"/><use xlink:href="#z" transform="matrix(1,0,0,1,1117.4417402062084,587.1391236693976) translate(0 21.88888888888889)"/><path d="M1112.44 332.74h205.36v48.96h-205.36z" stroke="#666" fill="#ffb781"/><use xlink:href="#A" transform="matrix(1,0,0,1,1117.2417402062083,337.53679790499984) translate(65.23950617283951 25.255555555555556)"/><path d="M166.32 1459.87h205.36v129H166.32z" fill="#fff"/><path d="M166.32 1545.87h205.36v43H166.32z" fill="#e6e6e6"/><path d="M166.32 1459.87h205.36v43H166.32z" fill="#ccc"/><path d="M166.32 1459.87h205.36v129H166.32zM166.32 1502.87h205.36" stroke="#666" fill="none"/><use xlink:href="#B" transform="matrix(1,0,0,1,176.3235616712891,1459.870194896636) translate(5 27.98888888888889)"/><use xlink:href="#C" transform="matrix(1,0,0,1,171.3235616712891,1505.370194896636) translate(5 25.48888888888889)"/><use xlink:href="#D" transform="matrix(1,0,0,1,171.3235616712891,1548.370194896636) translate(5 25.48888888888889)"/><path d="M166.32 1458.34h205.36v40.9H166.32z" stroke="#666" fill="#ffb781"/><use xlink:href="#E" transform="matrix(1,0,0,1,171.1235616712891,1463.13685933118) translate(59.230246913580245 24.755555555555556)"/><path d="M645.38 1380.02h205.36v199H645.38z" fill="#fff"/><path d="M645.38 1462.02h205.36v39H645.38zM645.38 1540.02h205.36v39H645.38z" fill="#e6e6e6"/><path d="M645.38 1380.02h205.36v43H645.38z" fill="#ccc"/><path d="M645.38 1380.02h205.36v199H645.38zM645.38 1423.02h205.36" stroke="#666" fill="none"/><use xlink:href="#F" transform="matrix(1,0,0,1,650.3830491352194,1425.5234706260535) translate(0 21.88888888888889)"/><use xlink:href="#G" transform="matrix(1,0,0,1,650.3830491352194,1464.5234706260535) translate(0 21.88888888888889)"/><use xlink:href="#H" transform="matrix(1,0,0,1,650.3830491352194,1503.5234706260535) translate(0 21.88888888888889)"/><use xlink:href="#I" transform="matrix(1,0,0,1,650.3830491352194,1542.5234706260535) translate(0 21.88888888888889)"/><path d="M645.38 1378.5h205.36v40.26H645.38z" stroke="#666" fill="#ffb781"/><use xlink:href="#J" transform="matrix(1,0,0,1,650.1830491352191,1383.2901350605975) translate(34.10679012345678 24.693055555555556)"/><path d="M962.18 1092.32h94.47v79h-94.47z" fill="#fff"/><path d="M962.18 1092.32h94.47v40h-94.47z" fill="#ccc"/><path d="M962.18 1092.32h94.47v79h-94.47zM962.18 1132.32h94.47" stroke="#666" fill="none"/><use xlink:href="#K" transform="matrix(1,0,0,1,967.1781384684266,1134.8192475172273) translate(0 21.88888888888889)"/><path d="M962.18 1090.8h94.47v38.2h-94.47z" stroke="#666" fill="#ffb781"/><use xlink:href="#L" transform="matrix(1,0,0,1,966.97813846844,1095.585911951771) translate(2.3043209876543145 22.755555555555556)"/><path d="M1074.8 748.34h205.35v164H1074.8z" fill="#fff"/><path d="M1074.8 834.34h205.35v39H1074.8z" fill="#e6e6e6"/><path d="M1074.8 748.34h205.35v43H1074.8z" fill="#ccc"/><path d="M1074.8 748.34h205.35v164H1074.8zM1074.8 791.34h205.35" stroke="#666" fill="none"/><use xlink:href="#M" transform="matrix(1,0,0,1,1079.7912874152419,793.8438107954446) translate(5 25.48888888888889)"/><use xlink:href="#N" transform="matrix(1,0,0,1,1079.7912874152419,836.8438107954446) translate(0 21.88888888888889)"/><use xlink:href="#O" transform="matrix(1,0,0,1,1079.7912874152419,875.8438107954446) translate(0 21.88888888888889)"/><path d="M1074.8 743.4h205.35v43.95H1074.8z" stroke="#666" fill="#ffb781"/><use xlink:href="#P" transform="matrix(1,0,0,1,1079.5912874152418,748.1953669164708) translate(66.63148148148149 24.943055555555556)"/><path d="M542.16 311.3l61.7 34.7-61.7 34.7-61.7-34.7z" stroke="#000" stroke-width="2" fill="#fff"/><use xlink:href="#Q" transform="matrix(1,0,0,1,485.46716050005597,316.30415015978105) translate(18.36419753086419 34.888888888888886)"/><path d="M542.16 309.16V236.9" fill="none"/><path d="M542.16 309.16v-2m0-8.04v-4m0-8.04v-4m0-8.04v-4.02m0-8.02v-4.02m0-8.03v-4m0-8.04v-2" stroke="#000" stroke-width="2" fill="none"/><path d="M543.16 310.72l-1-.56-1 .56v-1.6h2zM543.16 236.93h-2v-1.02h2z"/><path d="M493.86 180.2h96.6v54.7h-96.6z" stroke="#000" stroke-width="2" fill="#fff"/><use xlink:href="#R" transform="matrix(1,0,0,1,498.8595411077327,185.1976211394867) translate(0.7222222222222143 27.993055555555557)"/><path d="M389.52 434.4v-34.95h-.07V346h87.98" stroke="#000" stroke-width="2" fill="none"/><path d="M389.52 449.65l-4.64-14.26h9.27z" stroke="#000" stroke-width="2"/><path d="M478.43 346l1.78 1h-2.8v-2h2.8z"/><path d="M606.9 346h65.02" stroke="#000" stroke-width="2" fill="none"/><path d="M606.9 347h-2.8l1.8-1-1.8-1h2.8z"/><path d="M685.85 347.1l-14.58 3.5.72-9.24z" stroke="#000" stroke-width="2"/><path d="M568.8 389.07l48.4 31.53-48.4 31.54-48.38-31.54z" stroke="#000" stroke-width="2" fill="#fff"/><use xlink:href="#S" transform="matrix(1,0,0,1,525.416324257281,394.0668518473655) translate(27.921666666666663 33.05555555555556)"/><path d="M431.1 434.5v-13.9h86.48" stroke="#000" stroke-width="2" fill="none"/><path d="M431.2 449.65l-4.72-14.23 9.27-.06z" stroke="#000" stroke-width="2"/><path d="M518.58 420.6l1.54 1h-2.56v-2h2.56z"/><path d="M620.03 420.6h50.55" stroke="#000" stroke-width="2" fill="none"/><path d="M620.06 421.6h-2.56l1.53-1-1.53-1h2.56z"/><path d="M685.84 420.6l-14.26 4.63v-9.27z" stroke="#000" stroke-width="2"/><path d="M1003.7 316.2l66.88 38.87-66.9 38.87-66.88-38.87z" stroke="#000" stroke-width="2" fill="#fff"/><use xlink:href="#T" transform="matrix(1,0,0,1,941.7968746651742,321.19472569907396) translate(19.256172839506164 38.888888888888886)"/><path d="M1073.57 355.07h19.87" stroke="#000" stroke-width="2" fill="none"/><path d="M1073.6 356.07h-2.75l1.72-1-1.72-1h2.74z"/><path d="M1108.7 355.07l-14.26 4.63v-9.27z" stroke="#000" stroke-width="2"/><path d="M208.04 180.2H413.4v79H208.03z" fill="#fff"/><path d="M208.04 180.2H413.4v40H208.03z" fill="#ccc"/><path d="M208.04 180.2H413.4v79H208.03zM208.04 220.2H413.4" stroke="#666" fill="none"/><use xlink:href="#U" transform="matrix(1,0,0,1,213.0352212940398,222.69762113948667) translate(0 21.88888888888889)"/><path d="M208.04 171.13H413.4v46H208.03z" stroke="#666" fill="#ffb781"/><use xlink:href="#V" transform="matrix(1,0,0,1,212.83522129403974,175.92980510336412) translate(52.44012345679012 25.068055555555556)"/><path d="M310.7 382.87v51.54" stroke="#000" stroke-width="2" fill="none"/><path d="M310.7 381.87l1-.65v1.68h-2v-1.68z"/><path d="M310.7 449.65l-4.62-14.27h9.27z" stroke="#000" stroke-width="2"/><path d="M310.7 314.6l54.64 36.9-54.63 36.9-54.62-36.9z" stroke="#000" stroke-width="2" fill="#fff"/><use xlink:href="#W" transform="matrix(1,0,0,1,261.0837872116852,319.59793224483127) translate(22.412407407407404 35.55555555555556)"/><path d="M568.8 499.6l90.97 37.07-90.96 37.05-90.95-37.05z" stroke="#000" stroke-width="2" fill="#fff"/><use xlink:href="#X" transform="matrix(1,0,0,1,482.84706291525475,504.60976519196953) translate(25.635802469135783 37.388888888888886)"/><path d="M310.7 322.33l45.17 29.17-45.16 29.18-45.14-29.18z" stroke="#000" stroke-width="2" fill="#fff"/><use xlink:href="#W" transform="matrix(1,0,0,1,270.5562481125268,327.3291172758942) translate(13.407407407407405 29.38888888888889)"/><path d="M312.7 260.7v51.69M308.7 260.7v51.69" stroke="#000" stroke-width="2" fill="none"/><path d="M313.7 260.72h-2v-1.02h2zM309.7 260.72h-2v-1.02h2zM313.7 315.42l-2-1.35v-1.7h2zM309.7 314.07l-2 1.35v-3.06h2z"/><path d="M450.62 477.94h118.2v19.6" stroke="#000" stroke-width="2" fill="none"/><path d="M450.64 478.94h-1.02v-2h1.02zM569.8 498.94l-1-.4-1 .4v-1.44h2z"/><path d="M113.42 507l71.2 29.67-71.2 29.65-71.22-29.65z" stroke="#000" stroke-width="2" fill="#fff"/><use xlink:href="#Y" transform="matrix(1,0,0,1,47.20331623778134,512.0102263526799) translate(29.406234567901226 29.565555555555555)"/><path d="M211.86 476.5h-98.44v28.43" stroke="#000" stroke-width="2" fill="none"/><path d="M212.86 477.5h-1.03v-2h1.03zM114.42 506.34l-1-.4-1 .4v-1.44h2z"/><path d="M489.62 797.67l76.23 32.67L489.62 863l-76.23-32.66z" stroke="#000" stroke-width="2" fill="#fff"/><use xlink:href="#Z" transform="matrix(1,0,0,1,418.39016485005016,802.6733394300611) translate(27.398148148148138 32.888888888888886)"/><path d="M409.85 830.34h-23.1v-148.9" stroke="#000" stroke-width="2" fill="none"/><path d="M410.85 830.34l2.33 1h-3.35v-2h3.35z"/><path d="M386.74 666.17l4.64 14.26h-9.27z" stroke="#000" stroke-width="2"/><path d="M584.46 731.8l71.5 27.77-71.5 27.78-71.5-27.78z" stroke="#000" stroke-width="2" fill="#fff"/><use xlink:href="#aa" transform="matrix(1,0,0,1,517.9631717971375,736.7909782399888) translate(30.614197530864196 27.88888888888889)"/><path d="M509.2 759.57H416v-78.14" stroke="#000" stroke-width="2" fill="none"/><path d="M510.2 759.57l2.58 1h-3.6v-2h3.6z"/><path d="M416 666.17l4.63 14.26h-9.27z" stroke="#000" stroke-width="2"/><path d="M569.16 830.44h127.8" stroke="#000" stroke-width="2" fill="none"/><path d="M569.18 831.44h-3.36l2.57-1.1-2.1-.9h2.88zM697.95 831.44h-1.02v-2h1.02z"/><path d="M582.72 872.2l62.3 31.2-62.3 31.2-62.3-31.2z" stroke="#000" stroke-width="2" fill="#fff"/><use xlink:href="#ab" transform="matrix(1,0,0,1,525.416324257281,877.1879286717083) translate(26.48339506172839 29.565555555555555)"/><path d="M517.18 903.4h-159.7V681.43" stroke="#000" stroke-width="2" fill="none"/><path d="M518.18 903.4l2 1h-3.02v-2h3.02z"/><path d="M357.5 666.17l4.62 14.26h-9.27z" stroke="#000" stroke-width="2"/><path d="M484.52 943.78l81.33 35.06-81.33 35.07-81.33-35.06z" stroke="#000" stroke-width="2" fill="#fff"/><use xlink:href="#ac" transform="matrix(1,0,0,1,408.1944121648313,948.7764516721141) translate(25.574074074074062 35.388888888888886)"/><path d="M399.67 978.84h-68.43v-314.9" stroke="#000" stroke-width="2" fill="none"/><path d="M400.67 978.84l2.32 1h-3.36v-2H403zM332.24 663.96h-2v-1.03h2z"/><path d="M648.07 903.5h48.88" stroke="#000" stroke-width="2" fill="none"/><path d="M648.1 904.5h-3.03l2.2-1.1-1.8-.9h2.63zM697.95 904.5h-1.02v-2h1.02z"/><path d="M568.22 979.34h111.23" stroke="#000" stroke-width="2" fill="none"/><path d="M568.25 980.34h-3.35l3.35-1.44zm0-1.55l-1.03-.46h1.03z"/><path d="M694.72 979.34l-14.27 4.64v-9.27z" stroke="#000" stroke-width="2"/><path d="M801.13 670.2l57.17 27.6-57.17 27.63-57.16-27.62z" stroke="#000" stroke-width="2" fill="#fff"/><use xlink:href="#ad" transform="matrix(1,0,0,1,748.9690161461804,675.1972052767638) translate(23.302469135802465 27.88888888888889)"/><path d="M801.13 1085.14l41.6 27.35-41.6 27.33-41.6-27.34z" stroke="#000" stroke-width="2" fill="#fff"/><use xlink:href="#ae" transform="matrix(1,0,0,1,764.5386815258662,1090.1394854298753) translate(17.30864197530864 27.38888888888889)"/><path d="M801.13 1082.94v-18.04" stroke="#000" stroke-width="2" fill="none"/><path d="M802.13 1084.6l-1-.66-1 .66v-1.68h2zM802.13 1064.92h-2v-1.02h2z"/><path d="M845.55 1112.5h57.56v-.18h40.08" stroke="#000" stroke-width="2" fill="none"/><path d="M845.57 1113.5h-2.54l1.52-1-1.52-1h2.54z"/><path d="M958.44 1112.32l-14.26 4.63v-9.27z" stroke="#000" stroke-width="2"/><path d="M1163.8 1073.15l59.5 36.74-59.5 36.72-59.53-36.73z" stroke="#000" stroke-width="2" fill="#fff"/><use xlink:href="#af" transform="matrix(1,0,0,1,1109.2667756665976,1078.1534509133737) translate(9.540123456790113 36.888888888888886)"/><path d="M767.24 1179.5l68.8 33.23-68.8 33.24-68.8-33.24z" stroke="#000" stroke-width="2" fill="#fff"/><use xlink:href="#ag" transform="matrix(1,0,0,1,703.4549317942327,1184.4868640271436) translate(16.537037037037024 33.388888888888886)"/><path d="M695.16 1212.73H302.14v-531.3" stroke="#000" stroke-width="2" fill="none"/><path d="M696.16 1212.73l2.07 1h-3.1v-2h3.1z"/><path d="M302.14 666.17l4.64 14.26h-9.27z" stroke="#000" stroke-width="2"/><path d="M839.33 1212.73h408.1V931.35" stroke="#000" stroke-width="2" fill="none"/><path d="M839.36 1213.73h-3.1l2.07-1-2.07-1h3.1z"/><path d="M1247.42 916.08l4.64 14.27h-9.27z" stroke="#000" stroke-width="2"/><path d="M228.92 1340.78l49.6 33.24-49.6 33.24-49.62-33.24z" stroke="#000" stroke-width="2" fill="#fff"/><use xlink:href="#ah" transform="matrix(1,0,0,1,184.30015043502115,1345.7795355775568) translate(16.51543209876543 33.388888888888886)"/><path d="M228.92 1338.58v-157.64h.23v-499.5" stroke="#000" stroke-width="2" fill="none"/><path d="M229.92 1340.25l-1-.67-1 .67v-1.7h2z"/><path d="M229.15 666.17l4.64 14.26h-9.28z" stroke="#000" stroke-width="2"/><path d="M230.92 1409.46v23.64l.02.05v23.7M226.92 1409.46v23.7l.02.04v23.64" stroke="#000" stroke-width="2" fill="none"/><path d="M231.92 1409.5h-2v-1.7l2-1.35zM227.92 1407.8v1.7h-2v-3.05zM231.94 1457.84h-2v-1.03h2zM227.94 1457.84h-2v-1.03h2z"/><path d="M529.36 1273.76l65.43 45.6-65.44 45.6-65.43-45.6z" stroke="#000" stroke-width="2" fill="#fff"/><use xlink:href="#ai" transform="matrix(1,0,0,1,468.93218134519566,1278.7556147912894) translate(24.798209876543208 45.18055555555556)"/><path d="M461.18 1319.35H269.06V681.43" stroke="#000" stroke-width="2" fill="none"/><path d="M462.18 1319.35l1.44 1h-2.46v-2h2.46z"/><path d="M269.06 666.17l4.63 14.26h-9.28z" stroke="#000" stroke-width="2"/><path d="M529.36 1283.32l51.52 36.03-51.52 36.04-51.5-36.05z" stroke="#000" stroke-width="2" fill="#fff"/><use xlink:href="#ai" transform="matrix(1,0,0,1,482.84706291525475,1288.3156549717862) translate(11.793209876543209 36.388888888888886)"/><path d="M597.54 1317.35h150.52l1.4.6.6 1.4V1377" stroke="#000" stroke-width="2" fill="none"/><path d="M597.54 1321.35h148.52V1377" stroke="#000" stroke-width="2" fill="none"/><path d="M597.57 1318.35h-2.46l-1.56-1.1v-.9h4.03zM597.57 1322.35h-4.03v-.9l1.57-1.1h2.47zM751.06 1378h-2v-1.04h2zM747.06 1378h-2v-1.04h2z"/><path d="M568.8 575.8v28.13H450.63" stroke="#000" stroke-width="2" fill="none"/><path d="M569.8 575.83h-2v-1.43l1 .4 1-.4zM450.64 604.93h-1.02v-2h1.02z"/><path d="M113.42 568.4v35.53h98.44" stroke="#000" stroke-width="2" fill="none"/><path d="M114.42 568.43h-2V567l1 .4 1-.4zM212.86 604.93h-1.03v-2h1.03z"/><path d="M933.8 355.07H896.43" stroke="#000" stroke-width="2" fill="none"/><path d="M934.8 355.07l1.73 1h-2.75v-2h2.75zM896.46 356.07h-1.03v-2h1.03z"/><path d="M1101.36 1109.9h-43.2" stroke="#000" stroke-width="2" fill="none"/><path d="M1102.36 1109.9l1.62 1h-2.64v-2h2.64zM1058.17 1110.9h-1.02v-2h1.02z"/><path d="M1163.8 1070.98V931.36" stroke="#000" stroke-width="2" fill="none"/><path d="M1164.8 1072.6l-1-.62-1 .62v-1.65h2z"/><path d="M1163.8 916.08l4.63 14.27h-9.28z" stroke="#000" stroke-width="2"/><path d="M659.72 759.57h37.22" stroke="#000" stroke-width="2" fill="none"/><path d="M659.74 760.57h-3.6l2.58-1-2.58-1h3.6zM697.95 760.57h-1.02v-2h1.02z"/><defs><path d="M210-169c-67 3-38 105-44 169h-31v-121c0-29-5-50-35-48C34-165 62-65 56 0H25l-1-190h30c1 10-1 24 2 32 10-44 99-50 107 0 11-21 27-35 58-36 85-2 47 119 55 194h-31v-121c0-29-5-49-35-48" id="aj"/><path d="M24-231v-30h32v30H24zM24 0v-190h32V0H24" id="ak"/><path d="M85-194c31 0 48 13 60 33l-1-100h32l1 261h-30c-2-10 0-23-3-31C134-8 116 4 85 4 32 4 16-35 15-94c0-66 23-100 70-100zm9 24c-40 0-46 34-46 75 0 40 6 74 45 74 42 0 51-32 51-76 0-42-9-74-50-73" id="al"/><g id="a"><use transform="matrix(0.06790123456790124,0,0,0.06790123456790124,0,0)" xlink:href="#aj"/><use transform="matrix(0.06790123456790124,0,0,0.06790123456790124,20.302469135802472,0)" xlink:href="#ak"/><use transform="matrix(0.06790123456790124,0,0,0.06790123456790124,25.66666666666667,0)" xlink:href="#al"/><path d="M-1.22 1.7h41.7v1.78h-41.7z"/></g><path d="M84 4C-5 8 30-112 23-190h32v120c0 31 7 50 39 49 72-2 45-101 50-169h31l1 190h-30c-1-10 1-25-2-33-11 22-28 36-60 37" id="am"/><g id="b"><use transform="matrix(0.06790123456790124,0,0,0.06790123456790124,0,0)" xlink:href="#am"/><use transform="matrix(0.06790123456790124,0,0,0.06790123456790124,13.580246913580249,0)" xlink:href="#ak"/><use transform="matrix(0.06790123456790124,0,0,0.06790123456790124,18.944444444444446,0)" xlink:href="#al"/></g><path d="M59-47c-2 24 18 29 38 22v24C64 9 27 4 27-40v-127H5v-23h24l9-43h21v43h35v23H59v120" id="an"/><path d="M24 0v-261h32V0H24" id="ao"/><path d="M100-194c63 0 86 42 84 106H49c0 40 14 67 53 68 26 1 43-12 49-29l28 8c-11 28-37 45-77 45C44 4 14-33 15-96c1-61 26-98 85-98zm52 81c6-60-76-77-97-28-3 7-6 17-6 28h103" id="ap"/><g id="c"><use transform="matrix(0.06790123456790124,0,0,0.06790123456790124,0,0)" xlink:href="#aj"/><use transform="matrix(0.06790123456790124,0,0,0.06790123456790124,20.302469135802472,0)" xlink:href="#an"/><use transform="matrix(0.06790123456790124,0,0,0.06790123456790124,27.092592592592595,0)" xlink:href="#ak"/><use transform="matrix(0.06790123456790124,0,0,0.06790123456790124,32.45679012345679,0)" xlink:href="#an"/><use transform="matrix(0.06790123456790124,0,0,0.06790123456790124,39.24691358024692,0)" xlink:href="#ao"/><use transform="matrix(0.06790123456790124,0,0,0.06790123456790124,44.611111111111114,0)" xlink:href="#ap"/></g><path d="M135-143c-3-34-86-38-87 0 15 53 115 12 119 90S17 21 10-45l28-5c4 36 97 45 98 0-10-56-113-15-118-90-4-57 82-63 122-42 12 7 21 19 24 35" id="aq"/><path d="M141-36C126-15 110 5 73 4 37 3 15-17 15-53c-1-64 63-63 125-63 3-35-9-54-41-54-24 1-41 7-42 31l-33-3c5-37 33-52 76-52 45 0 72 20 72 64v82c-1 20 7 32 28 27v20c-31 9-61-2-59-35zM48-53c0 20 12 33 32 33 41-3 63-29 60-74-43 2-92-5-92 41" id="ar"/><path d="M115-194c55 1 70 41 70 98S169 2 115 4C84 4 66-9 55-30l1 105H24l-1-265h31l2 30c10-21 28-34 59-34zm-8 174c40 0 45-34 45-75s-6-73-45-74c-42 0-51 32-51 76 0 43 10 73 51 73" id="as"/><g id="d"><use transform="matrix(0.06790123456790124,0,0,0.06790123456790124,0,0)" xlink:href="#aj"/><use transform="matrix(0.06790123456790124,0,0,0.06790123456790124,20.302469135802472,0)" xlink:href="#an"/><use transform="matrix(0.06790123456790124,0,0,0.06790123456790124,27.092592592592595,0)" xlink:href="#ak"/><use transform="matrix(0.06790123456790124,0,0,0.06790123456790124,32.45679012345679,0)" xlink:href="#aj"/><use transform="matrix(0.06790123456790124,0,0,0.06790123456790124,52.75925925925927,0)" xlink:href="#ap"/><use transform="matrix(0.06790123456790124,0,0,0.06790123456790124,66.33950617283952,0)" xlink:href="#aq"/><use transform="matrix(0.06790123456790124,0,0,0.06790123456790124,78.56172839506175,0)" xlink:href="#an"/><use transform="matrix(0.06790123456790124,0,0,0.06790123456790124,85.35185185185188,0)" xlink:href="#ar"/><use transform="matrix(0.06790123456790124,0,0,0.06790123456790124,98.93209876543213,0)" xlink:href="#aj"/><use transform="matrix(0.06790123456790124,0,0,0.06790123456790124,119.2345679012346,0)" xlink:href="#as"/></g><path d="M141 0L90-78 38 0H4l68-98-65-92h35l48 74 47-74h35l-64 92 68 98h-35" id="at"/><g id="e"><use transform="matrix(0.06790123456790124,0,0,0.06790123456790124,0,0)" xlink:href="#aj"/><use transform="matrix(0.06790123456790124,0,0,0.06790123456790124,20.302469135802472,0)" xlink:href="#an"/><use transform="matrix(0.06790123456790124,0,0,0.06790123456790124,27.092592592592595,0)" xlink:href="#ap"/><use transform="matrix(0.06790123456790124,0,0,0.06790123456790124,40.67283950617284,0)" xlink:href="#at"/><use transform="matrix(0.06790123456790124,0,0,0.06790123456790124,52.89506172839506,0)" xlink:href="#an"/></g><g id="f"><use transform="matrix(0.06790123456790124,0,0,0.06790123456790124,0,0)" xlink:href="#aj"/><use transform="matrix(0.06790123456790124,0,0,0.06790123456790124,20.302469135802472,0)" xlink:href="#at"/></g><path d="M179-190L93 31C79 59 56 82 12 73V49c39 6 53-20 64-50L1-190h34L92-34l54-156h33" id="au"/><g id="g"><use transform="matrix(0.06790123456790124,0,0,0.06790123456790124,0,0)" xlink:href="#aj"/><use transform="matrix(0.06790123456790124,0,0,0.06790123456790124,20.302469135802472,0)" xlink:href="#au"/></g><path d="M240 0l2-218c-23 76-54 145-80 218h-23L58-218 59 0H30v-248h44l77 211c21-75 51-140 76-211h43V0h-30" id="av"/><path d="M177-190C167-65 218 103 67 71c-23-6-38-20-44-43l32-5c15 47 100 32 89-28v-30C133-14 115 1 83 1 29 1 15-40 15-95c0-56 16-97 71-98 29-1 48 16 59 35 1-10 0-23 2-32h30zM94-22c36 0 50-32 50-73 0-42-14-75-50-75-39 0-46 34-46 75s6 73 46 73" id="aw"/><g id="h"><use transform="matrix(0.06790123456790124,0,0,0.06790123456790124,0,0)" xlink:href="#av"/><use transform="matrix(0.06790123456790124,0,0,0.06790123456790124,20.302469135802472,0)" xlink:href="#ap"/><use transform="matrix(0.06790123456790124,0,0,0.06790123456790124,33.88271604938272,0)" xlink:href="#aq"/><use transform="matrix(0.06790123456790124,0,0,0.06790123456790124,46.104938271604944,0)" xlink:href="#aq"/><use transform="matrix(0.06790123456790124,0,0,0.06790123456790124,58.32716049382716,0)" xlink:href="#ar"/><use transform="matrix(0.06790123456790124,0,0,0.06790123456790124,71.90740740740742,0)" xlink:href="#aw"/><use transform="matrix(0.06790123456790124,0,0,0.06790123456790124,85.48765432098767,0)" xlink:href="#ap"/></g><g id="i"><use transform="matrix(0.06790123456790124,0,0,0.06790123456790124,0,0)" xlink:href="#am"/><use transform="matrix(0.06790123456790124,0,0,0.06790123456790124,13.580246913580249,0)" xlink:href="#ak"/><use transform="matrix(0.06790123456790124,0,0,0.06790123456790124,18.944444444444446,0)" xlink:href="#al"/><path d="M-1.22 1.7h34.97v1.78H-1.22z"/></g><path d="M117-194c89-4 53 116 60 194h-32v-121c0-31-8-49-39-48C34-167 62-67 57 0H25l-1-190h30c1 10-1 24 2 32 11-22 29-35 61-36" id="ax"/><g id="j"><use transform="matrix(0.06790123456790124,0,0,0.06790123456790124,0,0)" xlink:href="#am"/><use transform="matrix(0.06790123456790124,0,0,0.06790123456790124,13.580246913580249,0)" xlink:href="#ax"/><use transform="matrix(0.06790123456790124,0,0,0.06790123456790124,27.160493827160497,0)" xlink:href="#ar"/><use transform="matrix(0.06790123456790124,0,0,0.06790123456790124,40.74074074074075,0)" xlink:href="#aj"/><use transform="matrix(0.06790123456790124,0,0,0.06790123456790124,61.043209876543216,0)" xlink:href="#ap"/></g><path d="M114-163C36-179 61-72 57 0H25l-1-190h30c1 12-1 29 2 39 6-27 23-49 58-41v29" id="ay"/><g id="k"><use transform="matrix(0.06790123456790124,0,0,0.06790123456790124,0,0)" xlink:href="#am"/><use transform="matrix(0.06790123456790124,0,0,0.06790123456790124,13.580246913580249,0)" xlink:href="#ar"/><use transform="matrix(0.06790123456790124,0,0,0.06790123456790124,27.160493827160497,0)" xlink:href="#al"/><use transform="matrix(0.06790123456790124,0,0,0.06790123456790124,40.74074074074075,0)" xlink:href="#al"/><use transform="matrix(0.06790123456790124,0,0,0.06790123456790124,54.320987654320994,0)" xlink:href="#ay"/><use transform="matrix(0.06790123456790124,0,0,0.06790123456790124,62.40123456790124,0)" xlink:href="#ap"/><use transform="matrix(0.06790123456790124,0,0,0.06790123456790124,75.9814814814815,0)" xlink:href="#aq"/><use transform="matrix(0.06790123456790124,0,0,0.06790123456790124,88.20370370370372,0)" xlink:href="#aq"/></g><g id="l"><use transform="matrix(0.06790123456790124,0,0,0.06790123456790124,0,0)" xlink:href="#am"/><use transform="matrix(0.06790123456790124,0,0,0.06790123456790124,13.580246913580249,0)" xlink:href="#ap"/><use transform="matrix(0.06790123456790124,0,0,0.06790123456790124,27.160493827160497,0)" xlink:href="#aj"/><use transform="matrix(0.06790123456790124,0,0,0.06790123456790124,47.46296296296297,0)" xlink:href="#ar"/><use transform="matrix(0.06790123456790124,0,0,0.06790123456790124,61.043209876543216,0)" xlink:href="#ak"/><use transform="matrix(0.06790123456790124,0,0,0.06790123456790124,66.40740740740742,0)" xlink:href="#ao"/></g><path d="M232-93c-1 65-40 97-104 97C67 4 28-28 28-90v-158h33c8 89-33 224 67 224 102 0 64-133 71-224h33v155" id="az"/><g id="m"><use transform="matrix(0.06790123456790124,0,0,0.06790123456790124,0,0)" xlink:href="#az"/><use transform="matrix(0.06790123456790124,0,0,0.06790123456790124,17.58641975308642,0)" xlink:href="#aq"/><use transform="matrix(0.06790123456790124,0,0,0.06790123456790124,29.808641975308646,0)" xlink:href="#ap"/><use transform="matrix(0.06790123456790124,0,0,0.06790123456790124,43.38888888888889,0)" xlink:href="#ay"/></g><path d="M115-194c53 0 69 39 70 98 0 66-23 100-70 100C84 3 66-7 56-30L54 0H23l1-261h32v101c10-23 28-34 59-34zm-8 174c40 0 45-34 45-75 0-40-5-75-45-74-42 0-51 32-51 76 0 43 10 73 51 73" id="aA"/><g id="n"><use transform="matrix(0.06790123456790124,0,0,0.06790123456790124,0,0)" xlink:href="#aA"/><use transform="matrix(0.06790123456790124,0,0,0.06790123456790124,13.580246913580249,0)" xlink:href="#ak"/><use transform="matrix(0.06790123456790124,0,0,0.06790123456790124,18.944444444444446,0)" xlink:href="#al"/><path d="M-1.22 1.7h34.97v1.78H-1.22z"/></g><g id="o"><use transform="matrix(0.06790123456790124,0,0,0.06790123456790124,0,0)" xlink:href="#aA"/><use transform="matrix(0.06790123456790124,0,0,0.06790123456790124,13.580246913580249,0)" xlink:href="#ax"/><use transform="matrix(0.06790123456790124,0,0,0.06790123456790124,27.160493827160497,0)" xlink:href="#ar"/><use transform="matrix(0.06790123456790124,0,0,0.06790123456790124,40.74074074074075,0)" xlink:href="#aj"/><use transform="matrix(0.06790123456790124,0,0,0.06790123456790124,61.043209876543216,0)" xlink:href="#ap"/></g><path d="M100-194c62-1 85 37 85 99 1 63-27 99-86 99S16-35 15-95c0-66 28-99 85-99zM99-20c44 1 53-31 53-75 0-43-8-75-51-75s-53 32-53 75 10 74 51 75" id="aB"/><path d="M106-169C34-169 62-67 57 0H25v-261h32l-1 103c12-21 28-36 61-36 89 0 53 116 60 194h-32v-121c2-32-8-49-39-48" id="aC"/><g id="p"><use transform="matrix(0.06790123456790124,0,0,0.06790123456790124,0,0)" xlink:href="#aA"/><use transform="matrix(0.06790123456790124,0,0,0.06790123456790124,13.580246913580249,0)" xlink:href="#aq"/><use transform="matrix(0.06790123456790124,0,0,0.06790123456790124,25.802469135802472,0)" xlink:href="#aB"/><use transform="matrix(0.06790123456790124,0,0,0.06790123456790124,39.38271604938272,0)" xlink:href="#am"/><use transform="matrix(0.06790123456790124,0,0,0.06790123456790124,52.96296296296297,0)" xlink:href="#an"/><use transform="matrix(0.06790123456790124,0,0,0.06790123456790124,59.753086419753096,0)" xlink:href="#aC"/><use transform="matrix(0.06790123456790124,0,0,0.06790123456790124,73.33333333333334,0)" xlink:href="#at"/></g><g id="q"><use transform="matrix(0.06790123456790124,0,0,0.06790123456790124,0,0)" xlink:href="#aA"/><use transform="matrix(0.06790123456790124,0,0,0.06790123456790124,13.580246913580249,0)" xlink:href="#aq"/><use transform="matrix(0.06790123456790124,0,0,0.06790123456790124,25.802469135802472,0)" xlink:href="#aB"/><use transform="matrix(0.06790123456790124,0,0,0.06790123456790124,39.38271604938272,0)" xlink:href="#am"/><use transform="matrix(0.06790123456790124,0,0,0.06790123456790124,52.96296296296297,0)" xlink:href="#an"/><use transform="matrix(0.06790123456790124,0,0,0.06790123456790124,59.753086419753096,0)" xlink:href="#aC"/><use transform="matrix(0.06790123456790124,0,0,0.06790123456790124,73.33333333333334,0)" xlink:href="#au"/></g><g id="r"><use transform="matrix(0.06790123456790124,0,0,0.06790123456790124,0,0)" xlink:href="#aA"/><use transform="matrix(0.06790123456790124,0,0,0.06790123456790124,13.580246913580249,0)" xlink:href="#ax"/><use transform="matrix(0.06790123456790124,0,0,0.06790123456790124,27.160493827160497,0)" xlink:href="#aB"/><use transform="matrix(0.06790123456790124,0,0,0.06790123456790124,40.74074074074075,0)" xlink:href="#ay"/><use transform="matrix(0.06790123456790124,0,0,0.06790123456790124,48.820987654320994,0)" xlink:href="#an"/><use transform="matrix(0.06790123456790124,0,0,0.06790123456790124,55.61111111111112,0)" xlink:href="#aC"/><use transform="matrix(0.06790123456790124,0,0,0.06790123456790124,69.19135802469137,0)" xlink:href="#at"/></g><g id="s"><use transform="matrix(0.06790123456790124,0,0,0.06790123456790124,0,0)" xlink:href="#aA"/><use transform="matrix(0.06790123456790124,0,0,0.06790123456790124,13.580246913580249,0)" xlink:href="#ax"/><use transform="matrix(0.06790123456790124,0,0,0.06790123456790124,27.160493827160497,0)" xlink:href="#aB"/><use transform="matrix(0.06790123456790124,0,0,0.06790123456790124,40.74074074074075,0)" xlink:href="#ay"/><use transform="matrix(0.06790123456790124,0,0,0.06790123456790124,48.820987654320994,0)" xlink:href="#an"/><use transform="matrix(0.06790123456790124,0,0,0.06790123456790124,55.61111111111112,0)" xlink:href="#aC"/><use transform="matrix(0.06790123456790124,0,0,0.06790123456790124,69.19135802469137,0)" xlink:href="#au"/></g><path d="M96-169c-40 0-48 33-48 73s9 75 48 75c24 0 41-14 43-38l32 2c-6 37-31 61-74 61-59 0-76-41-82-99-10-93 101-131 147-64 4 7 5 14 7 22l-32 3c-4-21-16-35-41-35" id="aD"/><path d="M143 0L79-87 56-68V0H24v-261h32v163l83-92h37l-77 82L181 0h-38" id="aE"/><g id="t"><use transform="matrix(0.06790123456790124,0,0,0.06790123456790124,0,0)" xlink:href="#aA"/><use transform="matrix(0.06790123456790124,0,0,0.06790123456790124,13.580246913580249,0)" xlink:href="#ao"/><use transform="matrix(0.06790123456790124,0,0,0.06790123456790124,18.944444444444446,0)" xlink:href="#aB"/><use transform="matrix(0.06790123456790124,0,0,0.06790123456790124,32.5246913580247,0)" xlink:href="#aD"/><use transform="matrix(0.06790123456790124,0,0,0.06790123456790124,44.74691358024692,0)" xlink:href="#aE"/></g><g id="u"><use transform="matrix(0.06790123456790124,0,0,0.06790123456790124,0,0)" xlink:href="#aC"/><use transform="matrix(0.06790123456790124,0,0,0.06790123456790124,13.580246913580249,0)" xlink:href="#ak"/><use transform="matrix(0.06790123456790124,0,0,0.06790123456790124,18.944444444444446,0)" xlink:href="#al"/><path d="M-1.22 1.7h34.97v1.78H-1.22z"/></g><g id="v"><use transform="matrix(0.06790123456790124,0,0,0.06790123456790124,0,0)" xlink:href="#aC"/><use transform="matrix(0.06790123456790124,0,0,0.06790123456790124,13.580246913580249,0)" xlink:href="#ax"/><use transform="matrix(0.06790123456790124,0,0,0.06790123456790124,27.160493827160497,0)" xlink:href="#ar"/><use transform="matrix(0.06790123456790124,0,0,0.06790123456790124,40.74074074074075,0)" xlink:href="#aj"/><use transform="matrix(0.06790123456790124,0,0,0.06790123456790124,61.043209876543216,0)" xlink:href="#ap"/></g><g id="w"><use transform="matrix(0.06790123456790124,0,0,0.06790123456790124,0,0)" xlink:href="#aC"/><use transform="matrix(0.06790123456790124,0,0,0.06790123456790124,13.580246913580249,0)" xlink:href="#aq"/><use transform="matrix(0.06790123456790124,0,0,0.06790123456790124,25.802469135802472,0)" xlink:href="#aB"/><use transform="matrix(0.06790123456790124,0,0,0.06790123456790124,39.38271604938272,0)" xlink:href="#am"/><use transform="matrix(0.06790123456790124,0,0,0.06790123456790124,52.96296296296297,0)" xlink:href="#an"/><use transform="matrix(0.06790123456790124,0,0,0.06790123456790124,59.753086419753096,0)" xlink:href="#aC"/><use transform="matrix(0.06790123456790124,0,0,0.06790123456790124,73.33333333333334,0)" xlink:href="#at"/></g><g id="x"><use transform="matrix(0.06790123456790124,0,0,0.06790123456790124,0,0)" xlink:href="#aC"/><use transform="matrix(0.06790123456790124,0,0,0.06790123456790124,13.580246913580249,0)" xlink:href="#aq"/><use transform="matrix(0.06790123456790124,0,0,0.06790123456790124,25.802469135802472,0)" xlink:href="#aB"/><use transform="matrix(0.06790123456790124,0,0,0.06790123456790124,39.38271604938272,0)" xlink:href="#am"/><use transform="matrix(0.06790123456790124,0,0,0.06790123456790124,52.96296296296297,0)" xlink:href="#an"/><use transform="matrix(0.06790123456790124,0,0,0.06790123456790124,59.753086419753096,0)" xlink:href="#aC"/><use transform="matrix(0.06790123456790124,0,0,0.06790123456790124,73.33333333333334,0)" xlink:href="#au"/></g><g id="y"><use transform="matrix(0.06790123456790124,0,0,0.06790123456790124,0,0)" xlink:href="#aC"/><use transform="matrix(0.06790123456790124,0,0,0.06790123456790124,13.580246913580249,0)" xlink:href="#ax"/><use transform="matrix(0.06790123456790124,0,0,0.06790123456790124,27.160493827160497,0)" xlink:href="#aB"/><use transform="matrix(0.06790123456790124,0,0,0.06790123456790124,40.74074074074075,0)" xlink:href="#ay"/><use transform="matrix(0.06790123456790124,0,0,0.06790123456790124,48.820987654320994,0)" xlink:href="#an"/><use transform="matrix(0.06790123456790124,0,0,0.06790123456790124,55.61111111111112,0)" xlink:href="#aC"/><use transform="matrix(0.06790123456790124,0,0,0.06790123456790124,69.19135802469137,0)" xlink:href="#at"/></g><g id="z"><use transform="matrix(0.06790123456790124,0,0,0.06790123456790124,0,0)" xlink:href="#aC"/><use transform="matrix(0.06790123456790124,0,0,0.06790123456790124,13.580246913580249,0)" xlink:href="#ax"/><use transform="matrix(0.06790123456790124,0,0,0.06790123456790124,27.160493827160497,0)" xlink:href="#aB"/><use transform="matrix(0.06790123456790124,0,0,0.06790123456790124,40.74074074074075,0)" xlink:href="#ay"/><use transform="matrix(0.06790123456790124,0,0,0.06790123456790124,48.820987654320994,0)" xlink:href="#an"/><use transform="matrix(0.06790123456790124,0,0,0.06790123456790124,55.61111111111112,0)" xlink:href="#aC"/><use transform="matrix(0.06790123456790124,0,0,0.06790123456790124,69.19135802469137,0)" xlink:href="#au"/></g><g id="A"><use transform="matrix(0.06790123456790124,0,0,0.06790123456790124,0,0)" xlink:href="#aC"/><use transform="matrix(0.06790123456790124,0,0,0.06790123456790124,13.580246913580249,0)" xlink:href="#aB"/><use transform="matrix(0.06790123456790124,0,0,0.06790123456790124,27.160493827160497,0)" xlink:href="#aB"/><use transform="matrix(0.06790123456790124,0,0,0.06790123456790124,40.74074074074075,0)" xlink:href="#al"/></g><path d="M30-248c118-7 216 8 213 122C240-48 200 0 122 0H30v-248zM63-27c89 8 146-16 146-99s-60-101-146-95v194" id="aF"/><path d="M108 0H70L1-190h34L89-25l56-165h34" id="aG"/><g id="B"><use transform="matrix(0.06790123456790124,0,0,0.06790123456790124,0,0)" xlink:href="#aF"/><use transform="matrix(0.06790123456790124,0,0,0.06790123456790124,17.58641975308642,0)" xlink:href="#ap"/><use transform="matrix(0.06790123456790124,0,0,0.06790123456790124,31.16666666666667,0)" xlink:href="#ao"/><use transform="matrix(0.06790123456790124,0,0,0.06790123456790124,36.53086419753087,0)" xlink:href="#ak"/><use transform="matrix(0.06790123456790124,0,0,0.06790123456790124,41.89506172839506,0)" xlink:href="#aG"/><use transform="matrix(0.06790123456790124,0,0,0.06790123456790124,54.117283950617285,0)" xlink:href="#ap"/><use transform="matrix(0.06790123456790124,0,0,0.06790123456790124,67.69753086419753,0)" xlink:href="#ay"/><use transform="matrix(0.06790123456790124,0,0,0.06790123456790124,75.77777777777779,0)" xlink:href="#au"/></g><path d="M101-234c-31-9-42 10-38 44h38v23H63V0H32v-167H5v-23h27c-7-52 17-82 69-68v24" id="aH"/><g id="C"><use transform="matrix(0.06790123456790124,0,0,0.06790123456790124,0,0)" xlink:href="#as"/><use transform="matrix(0.06790123456790124,0,0,0.06790123456790124,13.580246913580249,0)" xlink:href="#as"/><use transform="matrix(0.06790123456790124,0,0,0.06790123456790124,27.160493827160497,0)" xlink:href="#ay"/><use transform="matrix(0.06790123456790124,0,0,0.06790123456790124,35.24074074074075,0)" xlink:href="#aB"/><use transform="matrix(0.06790123456790124,0,0,0.06790123456790124,48.820987654320994,0)" xlink:href="#aH"/><use transform="matrix(0.06790123456790124,0,0,0.06790123456790124,55.61111111111112,0)" xlink:href="#ak"/><use transform="matrix(0.06790123456790124,0,0,0.06790123456790124,60.97530864197532,0)" xlink:href="#ao"/><use transform="matrix(0.06790123456790124,0,0,0.06790123456790124,66.33950617283952,0)" xlink:href="#ap"/><path d="M-1.22 1.7h82.36v1.78H-1.22z"/></g><g id="D"><use transform="matrix(0.06790123456790124,0,0,0.06790123456790124,0,0)" xlink:href="#as"/><use transform="matrix(0.06790123456790124,0,0,0.06790123456790124,13.580246913580249,0)" xlink:href="#as"/><use transform="matrix(0.06790123456790124,0,0,0.06790123456790124,27.160493827160497,0)" xlink:href="#aC"/><use transform="matrix(0.06790123456790124,0,0,0.06790123456790124,40.74074074074075,0)" xlink:href="#aB"/><use transform="matrix(0.06790123456790124,0,0,0.06790123456790124,54.320987654320994,0)" xlink:href="#an"/><use transform="matrix(0.06790123456790124,0,0,0.06790123456790124,61.11111111111112,0)" xlink:href="#aB"/></g><g id="E"><use transform="matrix(0.06790123456790124,0,0,0.06790123456790124,0,0)" xlink:href="#as"/><use transform="matrix(0.06790123456790124,0,0,0.06790123456790124,13.580246913580249,0)" xlink:href="#ay"/><use transform="matrix(0.06790123456790124,0,0,0.06790123456790124,21.660493827160497,0)" xlink:href="#aB"/><use transform="matrix(0.06790123456790124,0,0,0.06790123456790124,35.24074074074075,0)" xlink:href="#aH"/><use transform="matrix(0.06790123456790124,0,0,0.06790123456790124,42.03086419753088,0)" xlink:href="#ak"/><use transform="matrix(0.06790123456790124,0,0,0.06790123456790124,47.39506172839507,0)" xlink:href="#ao"/><use transform="matrix(0.06790123456790124,0,0,0.06790123456790124,52.75925925925927,0)" xlink:href="#ap"/></g><g id="F"><use transform="matrix(0.06790123456790124,0,0,0.06790123456790124,0,0)" xlink:href="#ax"/><use transform="matrix(0.06790123456790124,0,0,0.06790123456790124,13.580246913580249,0)" xlink:href="#aH"/><use transform="matrix(0.06790123456790124,0,0,0.06790123456790124,20.370370370370374,0)" xlink:href="#ay"/><use transform="matrix(0.06790123456790124,0,0,0.06790123456790124,28.45061728395062,0)" xlink:href="#ak"/><use transform="matrix(0.06790123456790124,0,0,0.06790123456790124,33.81481481481482,0)" xlink:href="#ap"/><use transform="matrix(0.06790123456790124,0,0,0.06790123456790124,47.39506172839506,0)" xlink:href="#ax"/><use transform="matrix(0.06790123456790124,0,0,0.06790123456790124,60.97530864197531,0)" xlink:href="#al"/></g><g id="G"><use transform="matrix(0.06790123456790124,0,0,0.06790123456790124,0,0)" xlink:href="#ax"/><use transform="matrix(0.06790123456790124,0,0,0.06790123456790124,13.580246913580249,0)" xlink:href="#ax"/><use transform="matrix(0.06790123456790124,0,0,0.06790123456790124,27.160493827160497,0)" xlink:href="#ap"/><use transform="matrix(0.06790123456790124,0,0,0.06790123456790124,40.74074074074075,0)" xlink:href="#ak"/><use transform="matrix(0.06790123456790124,0,0,0.06790123456790124,46.104938271604944,0)" xlink:href="#aw"/><use transform="matrix(0.06790123456790124,0,0,0.06790123456790124,59.6851851851852,0)" xlink:href="#aC"/><use transform="matrix(0.06790123456790124,0,0,0.06790123456790124,73.26543209876544,0)" xlink:href="#aA"/><use transform="matrix(0.06790123456790124,0,0,0.06790123456790124,86.8456790123457,0)" xlink:href="#aB"/><use transform="matrix(0.06790123456790124,0,0,0.06790123456790124,100.42592592592595,0)" xlink:href="#am"/><use transform="matrix(0.06790123456790124,0,0,0.06790123456790124,114.0061728395062,0)" xlink:href="#ay"/></g><g id="H"><use transform="matrix(0.06790123456790124,0,0,0.06790123456790124,0,0)" xlink:href="#ax"/><use transform="matrix(0.06790123456790124,0,0,0.06790123456790124,13.580246913580249,0)" xlink:href="#aA"/><use transform="matrix(0.06790123456790124,0,0,0.06790123456790124,27.160493827160497,0)" xlink:href="#ao"/><use transform="matrix(0.06790123456790124,0,0,0.06790123456790124,32.5246913580247,0)" xlink:href="#aB"/><use transform="matrix(0.06790123456790124,0,0,0.06790123456790124,46.104938271604944,0)" xlink:href="#aD"/><use transform="matrix(0.06790123456790124,0,0,0.06790123456790124,58.32716049382716,0)" xlink:href="#aE"/></g><g id="I"><use transform="matrix(0.06790123456790124,0,0,0.06790123456790124,0,0)" xlink:href="#ax"/><use transform="matrix(0.06790123456790124,0,0,0.06790123456790124,13.580246913580249,0)" xlink:href="#aC"/><use transform="matrix(0.06790123456790124,0,0,0.06790123456790124,27.160493827160497,0)" xlink:href="#aB"/><use transform="matrix(0.06790123456790124,0,0,0.06790123456790124,40.74074074074075,0)" xlink:href="#aB"/><use transform="matrix(0.06790123456790124,0,0,0.06790123456790124,54.320987654320994,0)" xlink:href="#al"/></g><g id="J"><use transform="matrix(0.06790123456790124,0,0,0.06790123456790124,0,0)" xlink:href="#ax"/><use transform="matrix(0.06790123456790124,0,0,0.06790123456790124,13.580246913580249,0)" xlink:href="#aB"/><use transform="matrix(0.06790123456790124,0,0,0.06790123456790124,27.160493827160497,0)" xlink:href="#an"/><use transform="matrix(0.06790123456790124,0,0,0.06790123456790124,33.95061728395062,0)" xlink:href="#ak"/><use transform="matrix(0.06790123456790124,0,0,0.06790123456790124,39.31481481481481,0)" xlink:href="#aH"/><use transform="matrix(0.06790123456790124,0,0,0.06790123456790124,46.104938271604944,0)" xlink:href="#ak"/><use transform="matrix(0.06790123456790124,0,0,0.06790123456790124,51.46913580246915,0)" xlink:href="#aD"/><use transform="matrix(0.06790123456790124,0,0,0.06790123456790124,63.69135802469136,0)" xlink:href="#ar"/><use transform="matrix(0.06790123456790124,0,0,0.06790123456790124,77.27160493827161,0)" xlink:href="#an"/><use transform="matrix(0.06790123456790124,0,0,0.06790123456790124,84.06172839506173,0)" xlink:href="#ak"/><use transform="matrix(0.06790123456790124,0,0,0.06790123456790124,89.42592592592594,0)" xlink:href="#aB"/><use transform="matrix(0.06790123456790124,0,0,0.06790123456790124,103.00617283950619,0)" xlink:href="#ax"/></g><g id="K"><use transform="matrix(0.06790123456790124,0,0,0.06790123456790124,0,0)" xlink:href="#an"/><use transform="matrix(0.06790123456790124,0,0,0.06790123456790124,6.790123456790124,0)" xlink:href="#aC"/><use transform="matrix(0.06790123456790124,0,0,0.06790123456790124,20.370370370370374,0)" xlink:href="#ak"/><use transform="matrix(0.06790123456790124,0,0,0.06790123456790124,25.734567901234573,0)" xlink:href="#al"/><path d="M-1.22 1.7h41.76v1.78H-1.22z"/></g><g id="L"><use transform="matrix(0.06790123456790124,0,0,0.06790123456790124,0,0)" xlink:href="#an"/><use transform="matrix(0.06790123456790124,0,0,0.06790123456790124,6.790123456790124,0)" xlink:href="#aC"/><use transform="matrix(0.06790123456790124,0,0,0.06790123456790124,20.370370370370374,0)" xlink:href="#ay"/><use transform="matrix(0.06790123456790124,0,0,0.06790123456790124,28.45061728395062,0)" xlink:href="#ap"/><use transform="matrix(0.06790123456790124,0,0,0.06790123456790124,42.03086419753087,0)" xlink:href="#ar"/><use transform="matrix(0.06790123456790124,0,0,0.06790123456790124,55.611111111111114,0)" xlink:href="#al"/></g><g id="M"><use transform="matrix(0.06790123456790124,0,0,0.06790123456790124,0,0)" xlink:href="#an"/><use transform="matrix(0.06790123456790124,0,0,0.06790123456790124,6.790123456790124,0)" xlink:href="#ak"/><use transform="matrix(0.06790123456790124,0,0,0.06790123456790124,12.154320987654323,0)" xlink:href="#al"/><path d="M-1.22 1.7h28.18v1.78H-1.22z"/></g><path d="M24-231v-30h32v30H24zM-9 49c24 4 33-6 33-30v-209h32V24c2 40-23 58-65 49V49" id="aI"/><g id="N"><use transform="matrix(0.06790123456790124,0,0,0.06790123456790124,0,0)" xlink:href="#an"/><use transform="matrix(0.06790123456790124,0,0,0.06790123456790124,6.790123456790124,0)" xlink:href="#aq"/><use transform="matrix(0.06790123456790124,0,0,0.06790123456790124,19.01234567901235,0)" xlink:href="#am"/><use transform="matrix(0.06790123456790124,0,0,0.06790123456790124,32.592592592592595,0)" xlink:href="#aA"/><use transform="matrix(0.06790123456790124,0,0,0.06790123456790124,46.17283950617284,0)" xlink:href="#aI"/><use transform="matrix(0.06790123456790124,0,0,0.06790123456790124,51.53703703703704,0)" xlink:href="#ap"/><use transform="matrix(0.06790123456790124,0,0,0.06790123456790124,65.11728395061729,0)" xlink:href="#aD"/><use transform="matrix(0.06790123456790124,0,0,0.06790123456790124,77.33950617283952,0)" xlink:href="#an"/></g><g id="O"><use transform="matrix(0.06790123456790124,0,0,0.06790123456790124,0,0)" xlink:href="#an"/><use transform="matrix(0.06790123456790124,0,0,0.06790123456790124,6.790123456790124,0)" xlink:href="#an"/><use transform="matrix(0.06790123456790124,0,0,0.06790123456790124,13.580246913580249,0)" xlink:href="#au"/><use transform="matrix(0.06790123456790124,0,0,0.06790123456790124,25.802469135802472,0)" xlink:href="#as"/><use transform="matrix(0.06790123456790124,0,0,0.06790123456790124,39.38271604938272,0)" xlink:href="#ap"/></g><g id="P"><use transform="matrix(0.06790123456790124,0,0,0.06790123456790124,0,0)" xlink:href="#an"/><use transform="matrix(0.06790123456790124,0,0,0.06790123456790124,6.790123456790124,0)" xlink:href="#aB"/><use transform="matrix(0.06790123456790124,0,0,0.06790123456790124,20.370370370370374,0)" xlink:href="#as"/><use transform="matrix(0.06790123456790124,0,0,0.06790123456790124,33.95061728395062,0)" xlink:href="#ak"/><use transform="matrix(0.06790123456790124,0,0,0.06790123456790124,39.31481481481481,0)" xlink:href="#aD"/></g><g id="Q"><use transform="matrix(0.06790123456790124,0,0,0.06790123456790124,0,0)" xlink:href="#ar"/><use transform="matrix(0.06790123456790124,0,0,0.06790123456790124,13.580246913580249,0)" xlink:href="#as"/><use transform="matrix(0.06790123456790124,0,0,0.06790123456790124,27.160493827160497,0)" xlink:href="#as"/><use transform="matrix(0.06790123456790124,0,0,0.06790123456790124,40.74074074074075,0)" xlink:href="#ao"/><use transform="matrix(0.06790123456790124,0,0,0.06790123456790124,46.104938271604944,0)" xlink:href="#ak"/><use transform="matrix(0.06790123456790124,0,0,0.06790123456790124,51.46913580246915,0)" xlink:href="#ap"/><use transform="matrix(0.06790123456790124,0,0,0.06790123456790124,65.0493827160494,0)" xlink:href="#aq"/></g><g id="R"><use transform="matrix(0.06790123456790124,0,0,0.06790123456790124,0,0)" xlink:href="#ar"/><use transform="matrix(0.06790123456790124,0,0,0.06790123456790124,13.580246913580249,0)" xlink:href="#aD"/><use transform="matrix(0.06790123456790124,0,0,0.06790123456790124,25.802469135802472,0)" xlink:href="#aD"/><use transform="matrix(0.06790123456790124,0,0,0.06790123456790124,38.0246913580247,0)" xlink:href="#aB"/><use transform="matrix(0.06790123456790124,0,0,0.06790123456790124,51.604938271604944,0)" xlink:href="#am"/><use transform="matrix(0.06790123456790124,0,0,0.06790123456790124,65.18518518518519,0)" xlink:href="#ax"/><use transform="matrix(0.06790123456790124,0,0,0.06790123456790124,78.76543209876544,0)" xlink:href="#an"/></g><g id="S"><use transform="matrix(0.06790123456790124,0,0,0.06790123456790124,0,0)" xlink:href="#ak"/><use transform="matrix(0.06790123456790124,0,0,0.06790123456790124,5.364197530864199,0)" xlink:href="#ax"/><use transform="matrix(0.06790123456790124,0,0,0.06790123456790124,18.944444444444446,0)" xlink:href="#aq"/></g><g id="T"><use transform="matrix(0.06790123456790124,0,0,0.06790123456790124,0,0)" xlink:href="#aA"/><use transform="matrix(0.06790123456790124,0,0,0.06790123456790124,13.580246913580249,0)" xlink:href="#ap"/><use transform="matrix(0.06790123456790124,0,0,0.06790123456790124,27.160493827160497,0)" xlink:href="#ao"/><use transform="matrix(0.06790123456790124,0,0,0.06790123456790124,32.5246913580247,0)" xlink:href="#aB"/><use transform="matrix(0.06790123456790124,0,0,0.06790123456790124,46.104938271604944,0)" xlink:href="#ax"/><use transform="matrix(0.06790123456790124,0,0,0.06790123456790124,59.6851851851852,0)" xlink:href="#aw"/><use transform="matrix(0.06790123456790124,0,0,0.06790123456790124,73.26543209876544,0)" xlink:href="#aq"/></g><g id="U"><use transform="matrix(0.06790123456790124,0,0,0.06790123456790124,0,0)" xlink:href="#ao"/><use transform="matrix(0.06790123456790124,0,0,0.06790123456790124,5.364197530864199,0)" xlink:href="#an"/><use transform="matrix(0.06790123456790124,0,0,0.06790123456790124,12.154320987654323,0)" xlink:href="#ak"/><use transform="matrix(0.06790123456790124,0,0,0.06790123456790124,17.518518518518523,0)" xlink:href="#aj"/><use transform="matrix(0.06790123456790124,0,0,0.06790123456790124,37.820987654320994,0)" xlink:href="#ap"/><use transform="matrix(0.06790123456790124,0,0,0.06790123456790124,51.40123456790124,0)" xlink:href="#aq"/><use transform="matrix(0.06790123456790124,0,0,0.06790123456790124,63.62345679012347,0)" xlink:href="#an"/><use transform="matrix(0.06790123456790124,0,0,0.06790123456790124,70.41358024691357,0)" xlink:href="#ar"/><use transform="matrix(0.06790123456790124,0,0,0.06790123456790124,83.99382716049384,0)" xlink:href="#aj"/><use transform="matrix(0.06790123456790124,0,0,0.06790123456790124,104.2962962962963,0)" xlink:href="#as"/></g><g id="V"><use transform="matrix(0.06790123456790124,0,0,0.06790123456790124,0,0)" xlink:href="#ao"/><use transform="matrix(0.06790123456790124,0,0,0.06790123456790124,5.364197530864199,0)" xlink:href="#ar"/><use transform="matrix(0.06790123456790124,0,0,0.06790123456790124,18.944444444444446,0)" xlink:href="#aq"/><use transform="matrix(0.06790123456790124,0,0,0.06790123456790124,31.16666666666667,0)" xlink:href="#an"/><use transform="matrix(0.06790123456790124,0,0,0.06790123456790124,37.9567901234568,0)" xlink:href="#aG"/><use transform="matrix(0.06790123456790124,0,0,0.06790123456790124,50.17901234567902,0)" xlink:href="#ak"/><use transform="matrix(0.06790123456790124,0,0,0.06790123456790124,55.543209876543216,0)" xlink:href="#aq"/><use transform="matrix(0.06790123456790124,0,0,0.06790123456790124,67.76543209876544,0)" xlink:href="#ak"/><use transform="matrix(0.06790123456790124,0,0,0.06790123456790124,73.12962962962965,0)" xlink:href="#an"/></g><g id="W"><use transform="matrix(0.06790123456790124,0,0,0.06790123456790124,0,0)" xlink:href="#aG"/><use transform="matrix(0.06790123456790124,0,0,0.06790123456790124,12.222222222222223,0)" xlink:href="#ak"/><use transform="matrix(0.06790123456790124,0,0,0.06790123456790124,17.58641975308642,0)" xlink:href="#aq"/><use transform="matrix(0.06790123456790124,0,0,0.06790123456790124,29.808641975308646,0)" xlink:href="#ak"/><use transform="matrix(0.06790123456790124,0,0,0.06790123456790124,35.17283950617284,0)" xlink:href="#an"/><use transform="matrix(0.06790123456790124,0,0,0.06790123456790124,41.96296296296297,0)" xlink:href="#aq"/></g><g id="X"><use transform="matrix(0.06790123456790124,0,0,0.06790123456790124,0,0)" xlink:href="#ax"/><use transform="matrix(0.06790123456790124,0,0,0.06790123456790124,13.580246913580249,0)" xlink:href="#ap"/><use transform="matrix(0.06790123456790124,0,0,0.06790123456790124,27.160493827160497,0)" xlink:href="#ak"/><use transform="matrix(0.06790123456790124,0,0,0.06790123456790124,32.5246913580247,0)" xlink:href="#aw"/><use transform="matrix(0.06790123456790124,0,0,0.06790123456790124,46.104938271604944,0)" xlink:href="#aC"/><use transform="matrix(0.06790123456790124,0,0,0.06790123456790124,59.6851851851852,0)" xlink:href="#aA"/><use transform="matrix(0.06790123456790124,0,0,0.06790123456790124,73.26543209876544,0)" xlink:href="#aB"/><use transform="matrix(0.06790123456790124,0,0,0.06790123456790124,86.8456790123457,0)" xlink:href="#am"/><use transform="matrix(0.06790123456790124,0,0,0.06790123456790124,100.42592592592595,0)" xlink:href="#ay"/><use transform="matrix(0.06790123456790124,0,0,0.06790123456790124,108.5061728395062,0)" xlink:href="#aq"/></g><g id="Y"><use transform="matrix(0.06790123456790124,0,0,0.06790123456790124,0,0)" xlink:href="#aH"/><use transform="matrix(0.06790123456790124,0,0,0.06790123456790124,6.790123456790124,0)" xlink:href="#ay"/><use transform="matrix(0.06790123456790124,0,0,0.06790123456790124,14.870370370370374,0)" xlink:href="#ak"/><use transform="matrix(0.06790123456790124,0,0,0.06790123456790124,20.234567901234573,0)" xlink:href="#ap"/><use transform="matrix(0.06790123456790124,0,0,0.06790123456790124,33.814814814814824,0)" xlink:href="#ax"/><use transform="matrix(0.06790123456790124,0,0,0.06790123456790124,47.39506172839507,0)" xlink:href="#al"/><use transform="matrix(0.06790123456790124,0,0,0.06790123456790124,60.97530864197532,0)" xlink:href="#aq"/></g><g id="Z"><use transform="matrix(0.06790123456790124,0,0,0.06790123456790124,0,0)" xlink:href="#am"/><use transform="matrix(0.06790123456790124,0,0,0.06790123456790124,13.580246913580249,0)" xlink:href="#ax"/><use transform="matrix(0.06790123456790124,0,0,0.06790123456790124,27.160493827160497,0)" xlink:href="#ay"/><use transform="matrix(0.06790123456790124,0,0,0.06790123456790124,35.24074074074075,0)" xlink:href="#ap"/><use transform="matrix(0.06790123456790124,0,0,0.06790123456790124,48.820987654320994,0)" xlink:href="#ar"/><use transform="matrix(0.06790123456790124,0,0,0.06790123456790124,62.40123456790124,0)" xlink:href="#al"/><use transform="matrix(0.06790123456790124,0,0,0.06790123456790124,75.9814814814815,0)" xlink:href="#aq"/></g><g id="aa"><use transform="matrix(0.06790123456790124,0,0,0.06790123456790124,0,0)" xlink:href="#ay"/><use transform="matrix(0.06790123456790124,0,0,0.06790123456790124,8.080246913580249,0)" xlink:href="#ap"/><use transform="matrix(0.06790123456790124,0,0,0.06790123456790124,21.660493827160497,0)" xlink:href="#as"/><use transform="matrix(0.06790123456790124,0,0,0.06790123456790124,35.24074074074075,0)" xlink:href="#ao"/><use transform="matrix(0.06790123456790124,0,0,0.06790123456790124,40.604938271604944,0)" xlink:href="#ak"/><use transform="matrix(0.06790123456790124,0,0,0.06790123456790124,45.96913580246914,0)" xlink:href="#ap"/><use transform="matrix(0.06790123456790124,0,0,0.06790123456790124,59.54938271604939,0)" xlink:href="#aq"/></g><g id="ab"><use transform="matrix(0.06790123456790124,0,0,0.06790123456790124,0,0)" xlink:href="#ay"/><use transform="matrix(0.06790123456790124,0,0,0.06790123456790124,8.080246913580249,0)" xlink:href="#ap"/><use transform="matrix(0.06790123456790124,0,0,0.06790123456790124,21.660493827160497,0)" xlink:href="#ar"/><use transform="matrix(0.06790123456790124,0,0,0.06790123456790124,35.24074074074075,0)" xlink:href="#al"/><use transform="matrix(0.06790123456790124,0,0,0.06790123456790124,48.820987654320994,0)" xlink:href="#aq"/></g><g id="ac"><use transform="matrix(0.06790123456790124,0,0,0.06790123456790124,0,0)" xlink:href="#ar"/><use transform="matrix(0.06790123456790124,0,0,0.06790123456790124,13.580246913580249,0)" xlink:href="#aD"/><use transform="matrix(0.06790123456790124,0,0,0.06790123456790124,25.802469135802472,0)" xlink:href="#aD"/><use transform="matrix(0.06790123456790124,0,0,0.06790123456790124,38.0246913580247,0)" xlink:href="#ap"/><use transform="matrix(0.06790123456790124,0,0,0.06790123456790124,51.604938271604944,0)" xlink:href="#aq"/><use transform="matrix(0.06790123456790124,0,0,0.06790123456790124,63.827160493827165,0)" xlink:href="#aq"/><use transform="matrix(0.06790123456790124,0,0,0.06790123456790124,76.0493827160494,0)" xlink:href="#ap"/><use transform="matrix(0.06790123456790124,0,0,0.06790123456790124,89.62962962962965,0)" xlink:href="#aq"/></g><g id="ad"><use transform="matrix(0.06790123456790124,0,0,0.06790123456790124,0,0)" xlink:href="#as"/><use transform="matrix(0.06790123456790124,0,0,0.06790123456790124,13.580246913580249,0)" xlink:href="#aB"/><use transform="matrix(0.06790123456790124,0,0,0.06790123456790124,27.160493827160497,0)" xlink:href="#aq"/><use transform="matrix(0.06790123456790124,0,0,0.06790123456790124,39.38271604938272,0)" xlink:href="#an"/><use transform="matrix(0.06790123456790124,0,0,0.06790123456790124,46.17283950617285,0)" xlink:href="#aq"/></g><g id="ae"><use transform="matrix(0.06790123456790124,0,0,0.06790123456790124,0,0)" xlink:href="#aC"/><use transform="matrix(0.06790123456790124,0,0,0.06790123456790124,13.580246913580249,0)" xlink:href="#ar"/><use transform="matrix(0.06790123456790124,0,0,0.06790123456790124,27.160493827160497,0)" xlink:href="#aq"/></g><g id="af"><use transform="matrix(0.06790123456790124,0,0,0.06790123456790124,0,0)" xlink:href="#aD"/><use transform="matrix(0.06790123456790124,0,0,0.06790123456790124,12.222222222222223,0)" xlink:href="#aB"/><use transform="matrix(0.06790123456790124,0,0,0.06790123456790124,25.802469135802472,0)" xlink:href="#ax"/><use transform="matrix(0.06790123456790124,0,0,0.06790123456790124,39.38271604938272,0)" xlink:href="#an"/><use transform="matrix(0.06790123456790124,0,0,0.06790123456790124,46.17283950617285,0)" xlink:href="#ar"/><use transform="matrix(0.06790123456790124,0,0,0.06790123456790124,59.753086419753096,0)" xlink:href="#ak"/><use transform="matrix(0.06790123456790124,0,0,0.06790123456790124,65.11728395061729,0)" xlink:href="#ax"/><use transform="matrix(0.06790123456790124,0,0,0.06790123456790124,78.69753086419755,0)" xlink:href="#aq"/></g><g id="ag"><use transform="matrix(0.06790123456790124,0,0,0.06790123456790124,0,0)" xlink:href="#aq"/><use transform="matrix(0.06790123456790124,0,0,0.06790123456790124,12.222222222222223,0)" xlink:href="#as"/><use transform="matrix(0.06790123456790124,0,0,0.06790123456790124,25.802469135802472,0)" xlink:href="#ap"/><use transform="matrix(0.06790123456790124,0,0,0.06790123456790124,39.38271604938272,0)" xlink:href="#aD"/><use transform="matrix(0.06790123456790124,0,0,0.06790123456790124,51.604938271604944,0)" xlink:href="#ak"/><use transform="matrix(0.06790123456790124,0,0,0.06790123456790124,56.96913580246914,0)" xlink:href="#aH"/><use transform="matrix(0.06790123456790124,0,0,0.06790123456790124,63.75925925925927,0)" xlink:href="#ak"/><use transform="matrix(0.06790123456790124,0,0,0.06790123456790124,69.12345679012347,0)" xlink:href="#ap"/><use transform="matrix(0.06790123456790124,0,0,0.06790123456790124,82.70370370370371,0)" xlink:href="#aq"/></g><path d="M206 0h-36l-40-164L89 0H53L-1-190h32L70-26l43-164h34l41 164 42-164h31" id="aJ"/><g id="ah"><use transform="matrix(0.06790123456790124,0,0,0.06790123456790124,0,0)" xlink:href="#aB"/><use transform="matrix(0.06790123456790124,0,0,0.06790123456790124,13.580246913580249,0)" xlink:href="#aJ"/><use transform="matrix(0.06790123456790124,0,0,0.06790123456790124,31.16666666666667,0)" xlink:href="#ax"/><use transform="matrix(0.06790123456790124,0,0,0.06790123456790124,44.74691358024692,0)" xlink:href="#aq"/></g><g id="ai"><use transform="matrix(0.06790123456790124,0,0,0.06790123456790124,0,0)" xlink:href="#ap"/><use transform="matrix(0.06790123456790124,0,0,0.06790123456790124,13.580246913580249,0)" xlink:href="#aj"/><use transform="matrix(0.06790123456790124,0,0,0.06790123456790124,33.88271604938272,0)" xlink:href="#ar"/><use transform="matrix(0.06790123456790124,0,0,0.06790123456790124,47.46296296296297,0)" xlink:href="#ak"/><use transform="matrix(0.06790123456790124,0,0,0.06790123456790124,52.827160493827165,0)" xlink:href="#ao"/><use transform="matrix(0.06790123456790124,0,0,0.06790123456790124,58.19135802469136,0)" xlink:href="#aq"/></g></defs></g></svg>